<svg width="16" height="16" viewBox="0 0 16 16" fill="none" xmlns="http://www.w3.org/2000/svg">
<g clip-path="url(#clip0_124_7930)">
<path d="M7.99994 0C3.58166 0 0 3.58166 0 7.99994C0 12.4182 3.58166 16 7.99994 16C12.4182 16 16 12.4181 16 7.99994C16 3.58166 12.4182 0 7.99994 0ZM7.99803 10.3663C7.8808 10.3677 7.76447 10.3458 7.65576 10.302C7.54705 10.2581 7.44814 10.193 7.36475 10.1107C7.28136 10.0283 7.21515 9.93013 7.16996 9.82195C7.12478 9.71378 7.10151 9.59772 7.10151 9.48048C7.10151 9.36325 7.12478 9.24719 7.16996 9.13901C7.21515 9.03084 7.28136 8.93271 7.36475 8.85032C7.44814 8.76792 7.54705 8.70289 7.65576 8.65901C7.76447 8.61512 7.8808 8.59325 7.99803 8.59465C8.23112 8.59745 8.45373 8.692 8.61757 8.85783C8.78142 9.02365 8.8733 9.24737 8.8733 9.48048C8.8733 9.7136 8.78142 9.93732 8.61757 10.1031C8.45373 10.269 8.23112 10.3635 7.99803 10.3663ZM13.2503 10.7764C13.1142 10.8553 12.9597 10.8969 12.8025 10.8967C12.573 10.8967 12.3493 10.8135 12.2039 10.6513L8.51151 6.57229C8.39399 6.44701 8.22071 6.37291 8.03037 6.37291C7.84015 6.37291 7.66114 6.44713 7.54922 6.57229L3.8568 10.6513C3.61056 10.9245 3.14062 10.9803 2.81048 10.7763C2.48046 10.5722 2.41323 10.1828 2.65935 9.90936L6.35177 5.83052C6.74901 5.39012 7.36448 5.13522 8.03024 5.13522C8.69613 5.13522 9.30586 5.39012 9.70871 5.83052L13.4011 9.90936C13.6474 10.183 13.5803 10.5723 13.2503 10.7764Z" fill="black"/>
</g>
<defs>
<clipPath id="clip0_124_7930">
<rect width="16" height="16" fill="white"/>
</clipPath>
</defs>
</svg>
