<svg width="16" height="16" viewBox="0 0 16 16" fill="none" xmlns="http://www.w3.org/2000/svg">
<g clip-path="url(#clip0_124_7811)">
<path d="M11.458 0.692993C11.8809 0.713464 12.295 0.805011 12.6885 0.96936L12.6895 0.970337C12.8054 1.01963 12.8885 1.12194 12.9131 1.24475C12.9376 1.36776 12.899 1.49348 12.8125 1.58264L12.8115 1.58362L10.9082 3.49963L12.2012 4.82092L14.1006 2.90881C14.1905 2.81899 14.3196 2.78095 14.4424 2.8053L14.5303 2.83557C14.6137 2.87546 14.6811 2.94587 14.7168 3.03381C14.9933 3.71771 15.0693 4.46622 14.9346 5.19397C14.7968 5.94189 14.4425 6.62378 13.9131 7.16467C13.259 7.83181 12.4007 8.2195 11.4814 8.26526L11.2969 8.27014C10.7546 8.27007 10.2185 8.1459 9.72754 7.91565L9.1377 8.57288C9.25046 8.55904 9.36777 8.59578 9.45312 8.68225L9.4541 8.68323L9.52637 8.75647L9.65039 8.63049C9.81832 8.45933 10.0436 8.36299 10.2832 8.36292L10.3721 8.3678C10.5487 8.38562 10.7144 8.45578 10.8506 8.56995L10.916 8.63049L14.1064 11.9235L14.166 11.9918C14.4457 12.3436 14.4251 12.8623 14.1045 13.191L12.6484 14.6793C12.4805 14.8504 12.2551 14.9478 12.0156 14.9479C11.7759 14.9479 11.5507 14.8514 11.3828 14.6803L8.18945 11.3873C7.84797 11.0373 7.84892 10.4684 8.19141 10.1178L8.29297 10.0133L8.18555 9.90393C8.1394 9.85632 8.10885 9.79887 8.09277 9.73889L3.89746 14.4225L3.89062 14.4254C3.66002 14.6561 3.36407 14.797 3.04492 14.8287L2.90527 14.8365C2.52827 14.8365 2.17244 14.686 1.90723 14.4147L1.54395 14.0426C1.00072 13.4869 1.00081 12.5847 1.54395 12.0289L1.55176 12.0201L1.55469 12.0172C1.55801 12.0138 1.56279 12.0092 1.56836 12.0045L6.35938 7.90491C6.28057 7.89304 6.2046 7.85851 6.14551 7.79944L6.14453 7.79846L3.49121 5.09436H2.5957C2.46524 5.0943 2.34149 5.02516 2.27344 4.91174L1.05469 2.90881C0.964566 2.76117 0.988805 2.57292 1.10645 2.45081L2.08984 1.44592C2.21219 1.32135 2.40658 1.29421 2.55859 1.38928L4.5625 2.64221C4.64674 2.69396 4.70457 2.77474 4.72852 2.86487L4.74219 2.95667L4.75391 3.86194L7.48145 6.65881C7.5374 6.71568 7.57072 6.78587 7.58301 6.85803L8.09473 6.41956C7.70531 5.75514 7.51897 4.98302 7.57129 4.20667C7.63236 3.30116 8.01196 2.4474 8.64258 1.80237C9.34435 1.08496 10.2808 0.68824 11.2764 0.68811L11.458 0.692993ZM8.51367 9.27014C8.59099 9.28209 8.66543 9.31672 8.72461 9.37659L8.72559 9.37756L9.08887 9.75159C9.23231 9.89773 9.23306 10.1316 9.08984 10.278L8.73047 10.6442L8.72949 10.6451C8.67239 10.7031 8.67176 10.8018 8.73047 10.8619L11.9209 14.1549L11.9639 14.1842C11.98 14.1909 11.9976 14.194 12.0156 14.194L12.0654 14.1832C12.0815 14.1763 12.0974 14.1662 12.1104 14.153L13.5664 12.6656C13.61 12.6208 13.6205 12.5541 13.5986 12.4987L13.5664 12.4479L10.377 9.15881C10.3517 9.13309 10.318 9.11886 10.2832 9.11877C10.2504 9.11884 10.2163 9.13291 10.1875 9.16174L10.1865 9.16077L9.7959 9.56116L9.79492 9.56311C9.74183 9.6162 9.67371 9.6527 9.60059 9.6676L9.52539 9.67542C9.44816 9.67537 9.37395 9.64936 9.3125 9.60706L9.25586 9.5592L8.91504 9.20862C8.84229 9.13409 8.80537 9.03771 8.80664 8.94202L8.51367 9.27014ZM10.9844 1.45667C10.3046 1.52486 9.67326 1.82898 9.18262 2.32971L9.18164 2.32874C8.1395 3.39312 8.01867 5.05256 8.89551 6.27502C9.01012 6.43458 8.98279 6.65419 8.83496 6.78186L2.07324 12.5651C1.82382 12.831 1.82822 13.2563 2.08301 13.5172L2.44727 13.8893C2.57136 14.0155 2.73486 14.0836 2.90723 14.0836L3.0332 14.0709C3.15629 14.0461 3.26964 13.9854 3.36133 13.8922L9.36035 7.1969C9.479 7.06511 9.67387 7.03204 9.8291 7.1217L9.99902 7.21252C10.4028 7.41116 10.8481 7.51616 11.2969 7.51624C12.0821 7.51623 12.8199 7.20562 13.375 6.63928C14.0894 5.90931 14.3827 4.87744 14.1885 3.89026L12.4668 5.62366L12.4648 5.62561C12.396 5.69225 12.3028 5.73573 12.2002 5.73596H12.1982C12.1223 5.73588 12.0479 5.71263 11.9863 5.67053L11.9297 5.6217L10.1104 3.76331C9.96652 3.61601 9.96933 3.37922 10.1123 3.23401L11.8359 1.4967C11.6535 1.46094 11.4669 1.44301 11.2783 1.44299L10.9844 1.45667ZM1.84961 2.76624L2.80859 4.34045H3.65137C3.75003 4.34065 3.84753 4.38174 3.91797 4.45374L6.68359 7.27014C6.75593 7.34397 6.78953 7.44013 6.78906 7.53577L7.0918 7.27893C7.03739 7.26052 6.98524 7.23055 6.94238 7.18713L6.94141 7.18616L4.1084 4.27991C4.04149 4.21072 4.00232 4.11855 4 4.02307V4.02112L3.98828 3.17249L2.41406 2.18713L1.84961 2.76624Z" fill="black"/>
</g>
<defs>
<clipPath id="clip0_124_7811">
<rect width="16" height="16" fill="white"/>
</clipPath>
</defs>
</svg>
