<svg width="120" height="24" viewBox="0 0 120 24" fill="none" xmlns="http://www.w3.org/2000/svg">
<path d="M57.333 6.62954C56.4627 6.18545 55.5352 5.86414 54.5769 5.67476C53.1285 5.3565 52.4394 4.86128 52.5098 4.18911C52.5801 3.48128 53.128 3.10954 54.1536 3.07389C55.3163 3.07389 56.0214 3.56215 56.2689 4.53867C56.3117 4.69856 56.4718 4.79707 56.6336 4.76302L58.6004 4.36128C58.6857 4.34418 58.76 4.29226 58.8055 4.218C58.8509 4.14374 58.8635 4.05387 58.84 3.96998C58.2626 1.96041 56.6648 0.972153 54.0467 1.0052C51.4131 1.14259 49.9838 2.19128 49.7588 4.15128L49.7523 4.22433C49.6976 5.97302 50.7396 7.0752 52.8784 7.53085C53.5852 7.70476 54.3628 7.93476 55.2112 8.22085C56.0031 8.53128 56.4091 9.00954 56.4291 9.65563V9.75476C56.3422 10.6069 55.7253 11.05 54.5782 11.0839C53.1272 11.0839 52.2588 10.3908 51.9731 9.00476C51.9409 8.83515 51.778 8.72334 51.6084 8.75433L49.6468 9.11433C49.5617 9.13015 49.4868 9.18034 49.4398 9.25312C49.3927 9.3259 49.3776 9.41485 49.3981 9.49911C50.0059 11.9339 51.7482 13.1348 54.6251 13.1017C57.5775 13.0304 59.114 11.8756 59.2347 9.63737V9.55911C59.1913 8.23563 58.5574 7.25911 57.333 6.62954Z" fill="#333333"/>
<path d="M70.9549 1.18653H68.9321C68.7587 1.18653 68.6182 1.32726 68.6182 1.50087V5.59522C68.6182 5.76883 68.4776 5.90957 68.3043 5.90957H63.8444C63.6711 5.90957 63.5305 5.76883 63.5305 5.59522V1.50087C63.5305 1.32726 63.39 1.18653 63.2166 1.18653H61.1951C61.1116 1.18618 61.0314 1.21914 60.9723 1.27813C60.9131 1.33712 60.8799 1.41728 60.8799 1.50087V12.6009C60.8799 12.6845 60.9131 12.7646 60.9723 12.8236C61.0314 12.8826 61.1116 12.9156 61.1951 12.9152H63.2166C63.39 12.9152 63.5305 12.7745 63.5305 12.6009V8.50653C63.5305 8.33292 63.6711 8.19218 63.8444 8.19218H68.3056C68.4789 8.19218 68.6195 8.33292 68.6195 8.50653V12.6009C68.6195 12.7745 68.76 12.9152 68.9334 12.9152H70.9562C71.1296 12.9152 71.2701 12.7745 71.2701 12.6009V1.50087C71.2701 1.41728 71.2368 1.33712 71.1777 1.27813C71.1185 1.21914 71.0384 1.18618 70.9549 1.18653Z" fill="#333333"/>
<path d="M83.0396 1.21131H80.9646C80.7913 1.21131 80.6507 1.35204 80.6507 1.52565V7.8987C80.6507 9.91522 79.8206 10.9235 78.1603 10.9235C76.428 10.8896 75.5444 9.89913 75.5097 7.95218V1.52565C75.5097 1.35204 75.3691 1.21131 75.1958 1.21131H73.1743C73.0909 1.21096 73.0109 1.24396 72.9519 1.30299C72.893 1.36202 72.86 1.44218 72.8604 1.52565V7.95218C72.8942 11.3843 74.6079 13.1004 78.0014 13.1004C81.5694 13.1004 83.3535 11.3487 83.3535 7.84522V1.52565C83.3535 1.44228 83.3204 1.36233 83.2615 1.30338C83.2027 1.24443 83.1228 1.21131 83.0396 1.21131Z" fill="#333333"/>
<rect x="45.1975" y="1.03259" width="2.79261" height="12.0874" rx="1.3963" fill="#333333"/>
<path d="M43.4509 12.6556L38.8921 1.2439C38.8411 1.11647 38.7179 1.03285 38.5808 1.03259H36.0864C35.9475 1.03239 35.8225 1.1172 35.7712 1.24651C35.641 1.56346 35.3805 2.21172 35.0496 3.05303L34.7383 3.83564L34.2173 5.13998L31.1043 12.9335C31.0956 12.9554 31.0925 12.9791 31.0952 13.0026C31.101 13.0472 31.1276 13.0864 31.1668 13.1082C31.1872 13.1193 31.21 13.1252 31.2332 13.1252H33.6182C33.6758 13.1286 33.7289 13.0936 33.7484 13.0391L34.0727 12.2291L34.1639 12.0009L34.3033 11.6526L34.3749 11.4713L34.6706 10.733V10.7265L37.1832 4.43694C37.2074 4.37489 37.2671 4.33405 37.3336 4.33405C37.4001 4.33405 37.4598 4.37489 37.484 4.43694C37.8357 5.31607 38.3685 6.72998 39.0471 8.41781C39.0699 8.47461 39.059 8.53941 39.0189 8.58562C38.9788 8.63183 38.9162 8.65165 38.8569 8.63694C37.9738 8.40607 37.1806 8.5652 36.8627 8.72433C36.4134 8.94868 36.3873 9.35955 36.7038 9.51868C37.8149 9.99477 40.0761 11.6226 40.855 12.8709L40.868 12.8969C40.9237 13.0354 41.0576 13.1262 41.2066 13.1265H43.1422C43.2551 13.1254 43.36 13.068 43.4219 12.9735C43.4839 12.879 43.4947 12.7598 43.4509 12.6556Z" fill="#333333"/>
<path fill-rule="evenodd" clip-rule="evenodd" d="M89.2097 1.54261V12.2526C89.2097 12.5523 89.4523 12.7952 89.7516 12.7952H93.9301C96.2051 12.7952 97.9535 12.2335 99.1753 11.11C100.369 10.0491 101.039 8.51728 101.007 6.91913C101.008 5.24783 100.414 3.84348 99.2274 2.70609C98.0404 1.5687 96.4674 1 94.5084 1H89.7516C89.4523 1 89.2097 1.24293 89.2097 1.54261ZM92.423 11.0578C92.1238 11.0578 91.8812 10.8149 91.8812 10.5152L91.8747 3.2187C91.8747 2.91902 92.1173 2.67609 92.4165 2.67609H94.3456C95.5039 2.67696 96.4361 3.07609 97.1421 3.87348C97.848 4.67087 98.201 5.64565 98.201 6.79783C98.201 8.21 97.7972 9.27304 96.9897 9.98696C96.1821 10.7009 95.1991 11.0578 94.0408 11.0578H92.423Z" fill="#333333"/>
<path d="M105.602 12.7952H103.807C103.587 12.7952 103.408 12.6165 103.408 12.3961V1.39783C103.408 1.29209 103.45 1.19071 103.525 1.11606C103.6 1.04142 103.701 0.999655 103.807 1H105.602C105.707 0.999655 105.809 1.04142 105.884 1.11606C105.958 1.19071 106 1.29209 106 1.39783V12.3961C106 12.6165 105.822 12.7952 105.602 12.7952Z" fill="#333333"/>
<path fill-rule="evenodd" clip-rule="evenodd" d="M109.595 12.7952H111.317C111.556 12.7959 111.751 12.6029 111.752 12.3635V8.55609C111.753 8.31671 111.947 8.12304 112.186 8.12304H115.345C116.692 8.12217 117.805 7.78783 118.683 7.12C119.561 6.45217 120 5.57957 120 4.50217C119.999 3.5587 119.594 2.73913 118.783 2.04348C117.973 1.34783 116.728 1 115.049 1H109.595C109.356 1 109.162 1.19446 109.162 1.43435V12.3609C109.162 12.6008 109.356 12.7952 109.595 12.7952ZM112.185 6.29696C111.945 6.29696 111.751 6.10249 111.751 5.86261V3.19391C111.751 2.95403 111.945 2.75957 112.185 2.75957H114.584C115.603 2.75957 116.307 2.93348 116.697 3.2813C117.068 3.58749 117.282 4.04411 117.282 4.52565C117.295 5.03296 117.058 5.5144 116.649 5.81304C116.228 6.13565 115.617 6.29696 114.816 6.29696H112.185Z" fill="#333333"/>
<path fill-rule="evenodd" clip-rule="evenodd" d="M32.7219 18.0295V22.2817L34.0726 22.283C34.6028 22.283 35.0131 22.2061 35.3074 22.0521C35.6106 21.8876 35.8595 21.6384 36.0238 21.3348C36.2123 20.9906 36.3071 20.6028 36.2986 20.2104C36.3106 19.7602 36.1896 19.3165 35.9509 18.9348C35.7234 18.5821 35.3831 18.3172 34.9857 18.1835C34.6978 18.0817 34.2381 18.0295 33.6024 18.0295H32.7219ZM33.6194 21.88H33.1283V18.4456H33.4292C34.0388 18.4456 34.4816 18.4861 34.7421 18.5669C35.0801 18.6625 35.3738 18.874 35.5718 19.1643C35.7757 19.4762 35.8793 19.8431 35.8688 20.2156C35.8804 20.5668 35.7845 20.9132 35.594 21.2082C35.4148 21.4765 35.149 21.675 34.8411 21.7704C34.6132 21.8435 34.2068 21.88 33.6194 21.88Z" fill="#333333"/>
<path fill-rule="evenodd" clip-rule="evenodd" d="M40.0407 21.4169L39.6995 21.2383C39.61 21.4034 39.4958 21.5539 39.3608 21.6843C39.2457 21.7823 39.1131 21.8575 38.9701 21.9061C38.8208 21.9615 38.6629 21.9898 38.5037 21.9896C38.1882 21.9967 37.8844 21.8697 37.6675 21.64C37.4389 21.3972 37.3137 21.0749 37.3185 20.7413H40.141C40.1509 20.3536 40.0287 19.9741 39.7945 19.6652C39.4906 19.2659 39.0126 19.0385 38.5116 19.0548C38.0241 19.0392 37.5594 19.2614 37.2651 19.6509C37.0238 19.9536 36.8945 20.3305 36.899 20.7178C36.897 21.1384 37.0511 21.5447 37.3315 21.8578C37.6346 22.2006 38.0771 22.3864 38.5337 22.3626C38.7455 22.3661 38.9562 22.3303 39.155 22.2569C39.3381 22.187 39.5062 22.0825 39.65 21.9491C39.8109 21.7965 39.9432 21.6163 40.0407 21.4169ZM39.465 19.8687C39.5798 20.0236 39.6598 20.2016 39.6995 20.3904L37.3588 20.3878C37.4166 20.1398 37.5441 19.9135 37.7261 19.7356C37.9434 19.5384 38.2275 19.4316 38.5207 19.4369C38.7056 19.4371 38.8883 19.4776 39.056 19.5556C39.2145 19.6272 39.3545 19.7343 39.465 19.8687Z" fill="#333333"/>
<path d="M43.9483 19.7904L43.6279 19.99C43.3651 19.629 42.9405 19.4223 42.4947 19.4382C42.14 19.4269 41.796 19.5601 41.5412 19.8074C41.2943 20.0402 41.1567 20.3665 41.1622 20.7061C41.1609 20.9352 41.2212 21.1604 41.3367 21.3582C41.4495 21.5569 41.6155 21.72 41.816 21.8291C42.0252 21.9419 42.2597 21.9994 42.4973 21.9961C42.9408 22.0049 43.3615 21.7996 43.6279 21.4443L43.9483 21.6556C43.7968 21.8803 43.5881 22.0604 43.3439 22.1774C43.0736 22.3049 42.7778 22.3688 42.479 22.3639C42.0202 22.3786 41.5748 22.208 41.2429 21.8904C40.9236 21.5925 40.7452 21.1731 40.7519 20.7361C40.7503 20.4377 40.83 20.1446 40.9824 19.8882C41.1314 19.6294 41.3498 19.4175 41.6129 19.2765C41.8885 19.1279 42.1973 19.052 42.5103 19.0561C42.7146 19.0559 42.9177 19.088 43.1121 19.1513C43.2888 19.2065 43.4551 19.2907 43.6044 19.4004C43.7435 19.5065 43.8604 19.639 43.9483 19.7904Z" fill="#333333"/>
<path fill-rule="evenodd" clip-rule="evenodd" d="M45.384 17.9461C45.2917 17.8813 45.1626 17.8453 45.0284 17.847C44.8954 17.8459 44.7679 17.8819 44.6767 17.9461C44.5808 18.008 44.5276 18.0934 44.5293 18.1822C44.5304 18.3651 44.7529 18.5134 45.0284 18.5148C45.2309 18.5143 45.4132 18.4331 45.4908 18.3089C45.5685 18.1847 45.5264 18.0417 45.384 17.9461ZM45.3348 19.1422H44.7258V22.2818H45.3348V19.1422Z" fill="#333333"/>
<path d="M47.4874 19.4813L47.2269 19.75C47.0652 19.5661 46.8379 19.4532 46.5938 19.4357C46.4687 19.4335 46.3477 19.4803 46.2565 19.5661C46.1679 19.6423 46.1166 19.7531 46.1158 19.87C46.1181 19.9782 46.1593 20.0819 46.2317 20.1622C46.3719 20.302 46.5366 20.4148 46.7176 20.4948C46.9515 20.6003 47.1606 20.7541 47.3311 20.9461C47.4358 21.0895 47.4915 21.2628 47.49 21.4405C47.4934 21.6862 47.3948 21.9224 47.2177 22.0926C47.038 22.2717 46.7926 22.3688 46.5391 22.3613C46.3587 22.3621 46.1805 22.3215 46.0181 22.2426C45.8582 22.1675 45.7181 22.0558 45.6091 21.9165L45.8696 21.627C46.0254 21.8331 46.2633 21.9608 46.5209 21.9765C46.6739 21.9807 46.8224 21.925 46.9351 21.8213C47.0433 21.7299 47.1057 21.5953 47.1057 21.4535C47.1064 21.3404 47.0666 21.2308 46.9937 21.1444C46.8439 21.0048 46.6718 20.8915 46.4844 20.8091C46.2604 20.7109 46.0614 20.5633 45.9022 20.3774C45.8007 20.2353 45.7472 20.0643 45.7498 19.8896C45.7435 19.6654 45.8319 19.4489 45.9934 19.2935C46.1588 19.1343 46.3814 19.0487 46.6108 19.0561C46.9017 19.0561 47.1939 19.1978 47.4874 19.4813Z" fill="#333333"/>
<path fill-rule="evenodd" clip-rule="evenodd" d="M48.8669 17.9461C48.7746 17.8813 48.6455 17.8453 48.5113 17.847C48.3783 17.8459 48.2508 17.8819 48.1596 17.9461C48.0638 18.008 48.0105 18.0934 48.0122 18.1822C48.0133 18.3651 48.2358 18.5134 48.5113 18.5148C48.7138 18.5143 48.8961 18.4331 48.9738 18.3089C49.0514 18.1847 49.0093 18.0417 48.8669 17.9461ZM48.8178 19.1422H48.2087V22.2818H48.8178V19.1422Z" fill="#333333"/>
<path fill-rule="evenodd" clip-rule="evenodd" d="M52.0774 19.5778C51.772 19.2356 51.3321 19.0448 50.8739 19.056C50.4144 19.0447 49.9733 19.2365 49.6678 19.5804C49.0802 20.2322 49.091 21.2266 49.6925 21.8656C50.0044 22.181 50.4293 22.3585 50.8726 22.3585C51.3159 22.3585 51.7408 22.181 52.0527 21.8656C52.6546 21.2258 52.6654 20.2305 52.0774 19.5778ZM50.0077 19.8204C50.2309 19.5791 50.5455 19.4436 50.8739 19.4473L50.8726 19.4525C51.2011 19.4517 51.5148 19.5889 51.7375 19.8308C51.9758 20.0699 52.107 20.3956 52.1009 20.7334C52.1023 20.956 52.0453 21.1751 51.9355 21.3686C51.8323 21.559 51.678 21.7167 51.49 21.8238C51.1061 22.0377 50.6391 22.0377 50.2552 21.8238C50.0672 21.7167 49.9129 21.559 49.8097 21.3686C49.6986 21.1719 49.6419 20.949 49.6456 20.723C49.639 20.3854 49.7697 20.0596 50.0077 19.8204Z" fill="#333333"/>
<path d="M53.2588 19.1369H53.6626V19.7017C53.8046 19.5028 53.9882 19.3372 54.2005 19.2165C54.397 19.1093 54.6176 19.054 54.8414 19.0561C55.063 19.0523 55.2807 19.115 55.4666 19.2361C55.6458 19.3531 55.786 19.5212 55.869 19.7187C55.9711 20.023 56.0153 20.3437 55.9993 20.6643V22.2817H55.5942V20.7817C55.6032 20.5387 55.5883 20.2953 55.5499 20.0552C55.5172 19.8721 55.4219 19.706 55.2803 19.5856C55.1297 19.475 54.9459 19.4193 54.7593 19.4278C54.5202 19.4281 54.2892 19.5142 54.108 19.6704C53.9198 19.8253 53.786 20.0365 53.7264 20.273C53.6771 20.5554 53.6575 20.8422 53.6678 21.1287V22.2817H53.264L53.2588 19.1369Z" fill="#333333"/>
<path d="M58.5079 18.0295H58.9273V22.2817H58.5027L58.5079 18.0295Z" fill="#333333"/>
<path d="M59.8391 19.137H60.2429V19.7017C60.3848 19.5032 60.5679 19.3377 60.7795 19.2165C60.9761 19.1096 61.1966 19.0544 61.4204 19.0561C61.6421 19.052 61.8599 19.1148 62.0456 19.2361C62.2256 19.3526 62.3663 19.5208 62.4494 19.7187C62.5513 20.023 62.5955 20.3438 62.5796 20.6644V22.2817H62.1758V20.7817C62.1846 20.5387 62.1693 20.2953 62.1302 20.0552C62.0985 19.872 62.0036 19.7058 61.8619 19.5857C61.7113 19.475 61.5275 19.4193 61.3409 19.4278C61.1019 19.4282 60.8708 19.5142 60.6897 19.6704C60.5015 19.8256 60.3674 20.0366 60.3067 20.273C60.2588 20.5556 60.2395 20.8423 60.2494 21.1287V22.2817H59.8391V19.137Z" fill="#333333"/>
<path d="M63.7974 17.9695H64.2012V19.1369H64.842V19.4877H64.2012V22.2817H63.7974V19.4877H63.2451V19.1369H63.7974V17.9695Z" fill="#333333"/>
<path fill-rule="evenodd" clip-rule="evenodd" d="M68.4345 21.417L68.0932 21.2383C68.0029 21.4029 67.8888 21.5532 67.7546 21.6844C67.6395 21.7823 67.5069 21.8575 67.3638 21.9061C67.2142 21.9617 67.0558 21.9899 66.8962 21.9896C66.5811 21.9965 66.2778 21.8695 66.0613 21.64C65.8324 21.3974 65.7067 21.0751 65.7109 20.7413H68.5361C68.5466 20.3533 68.4238 19.9735 68.1883 19.6652C67.8846 19.2658 67.4065 19.0383 66.9053 19.0548C66.4183 19.0394 65.954 19.2616 65.6601 19.6509C65.4185 19.9535 65.2887 20.3304 65.2928 20.7178C65.2912 21.1386 65.4458 21.5449 65.7266 21.8578C66.0297 22.2006 66.4722 22.3864 66.9288 22.3626C67.1406 22.3659 67.3512 22.33 67.5501 22.257C67.733 22.1873 67.9006 22.0828 68.0437 21.9491C68.205 21.7969 68.3374 21.6166 68.4345 21.417ZM67.8575 19.8687C67.9728 20.0235 68.0532 20.2015 68.0932 20.3904L65.7513 20.3878C65.8102 20.1402 65.9374 19.9142 66.1186 19.7357C66.3364 19.5385 66.6209 19.4317 66.9145 19.437C67.099 19.437 67.2813 19.4775 67.4485 19.5557C67.6072 19.6269 67.7472 19.734 67.8575 19.8687Z" fill="#333333"/>
<path d="M69.2317 17.9226H69.6355V22.2817H69.2317V17.9226Z" fill="#333333"/>
<path d="M70.4143 17.9226H70.8194V22.2817H70.4143V17.9226Z" fill="#333333"/>
<path fill-rule="evenodd" clip-rule="evenodd" d="M72.3209 17.9461C72.2289 17.8813 72.1 17.8453 71.9661 17.847C71.8335 17.8462 71.7064 17.8821 71.6151 17.9461C71.4717 18.0411 71.4286 18.1843 71.5059 18.3087C71.5832 18.4332 71.7656 18.5143 71.968 18.5143C72.1704 18.5143 72.3528 18.4332 72.4301 18.3087C72.5074 18.1843 72.4643 18.0411 72.3209 17.9461ZM72.2739 19.1422H71.6641V22.2818H72.2739V19.1422Z" fill="#333333"/>
<path fill-rule="evenodd" clip-rule="evenodd" d="M75.9553 19.1369H75.5515L75.5554 19.6795C75.3951 19.4795 75.1945 19.3155 74.9667 19.1982C74.7611 19.1007 74.5363 19.0508 74.3089 19.0522C73.7315 19.0559 73.199 19.3646 72.9082 19.8641C72.6175 20.3637 72.6117 20.9798 72.8931 21.4848C73.0332 21.7282 73.2373 21.9284 73.4831 22.0639C73.9487 22.3274 74.5126 22.3502 74.9979 22.1252C75.216 22.0227 75.407 21.8704 75.5554 21.6804V21.8422C75.5716 22.0994 75.5302 22.3569 75.4343 22.5961C75.3417 22.7648 75.1999 22.9013 75.0279 22.9874C74.8117 23.0966 74.5717 23.1499 74.3297 23.1426C74.0868 23.1508 73.8457 23.0988 73.6277 22.9913C73.4325 22.8845 73.2717 22.7244 73.164 22.5295H72.7263C72.8145 22.7386 72.9403 22.9296 73.0975 23.093C73.2479 23.2309 73.4254 23.3357 73.6186 23.4008C73.8522 23.4796 74.0976 23.5179 74.3441 23.5143C74.6742 23.5244 75.0008 23.4437 75.2884 23.2808C75.5453 23.1307 75.7406 22.894 75.8394 22.613C75.9319 22.2987 75.9711 21.9712 75.9553 21.6439V19.1369ZM73.7202 19.613C73.9148 19.5028 74.1348 19.4457 74.3584 19.4474C74.574 19.446 74.7861 19.5018 74.9732 19.6091C75.1591 19.7116 75.3126 19.8644 75.416 20.05C75.5213 20.2444 75.5747 20.4628 75.571 20.6839C75.5864 21.0123 75.4636 21.3322 75.2324 21.5656C74.992 21.7954 74.6683 21.917 74.3362 21.9022C74.0032 21.9153 73.679 21.793 73.4375 21.563C73.2072 21.3391 73.0815 21.0286 73.091 20.7074C73.0899 20.4849 73.1479 20.2661 73.2591 20.0735C73.3676 19.8805 73.5271 19.7212 73.7202 19.613Z" fill="#333333"/>
<path fill-rule="evenodd" clip-rule="evenodd" d="M79.8069 21.4169L79.4669 21.2383C79.3762 21.4029 79.2617 21.5533 79.127 21.6843C79.0116 21.7819 78.8791 21.8571 78.7362 21.9061C78.587 21.9617 78.4291 21.9899 78.2699 21.9896C77.9544 21.9965 77.6507 21.8695 77.4337 21.64C77.2051 21.3972 77.0799 21.0749 77.0846 20.7413H79.9072C79.9171 20.3536 79.7949 19.9741 79.5607 19.6652C79.2568 19.2659 78.7788 19.0385 78.2777 19.0548C77.7903 19.0394 77.3257 19.2616 77.0312 19.6509C76.5188 20.3064 76.5473 21.235 77.099 21.8578C77.3881 22.1943 77.7884 22.3626 78.2999 22.3626C78.5121 22.366 78.7232 22.3302 78.9225 22.2569C79.1051 22.1867 79.2726 22.0822 79.4162 21.9491C79.5771 21.7965 79.7094 21.6163 79.8069 21.4169ZM79.2312 19.8687C79.346 20.0238 79.4263 20.2017 79.4669 20.3904L77.125 20.3878C77.1833 20.14 77.3107 19.9138 77.4923 19.7356C77.7095 19.5384 77.9937 19.4316 78.2869 19.4369C78.4718 19.437 78.6545 19.4775 78.8222 19.5556C78.9809 19.6269 79.1209 19.734 79.2312 19.8687Z" fill="#333333"/>
<path d="M80.665 19.137H81.0701V19.7017C81.2117 19.5029 81.3948 19.3373 81.6068 19.2165C81.8034 19.1096 82.0239 19.0544 82.2476 19.0561C82.4693 19.052 82.6871 19.1148 82.8728 19.2361C83.0528 19.3523 83.1932 19.5207 83.2753 19.7187C83.378 20.0228 83.4222 20.3437 83.4055 20.6644V22.2817H83.0018V20.7817C83.0105 20.5387 82.9952 20.2953 82.9562 20.0552C82.9235 19.8721 82.8282 19.7061 82.6866 19.5857C82.536 19.475 82.3521 19.4193 82.1655 19.4278C81.9264 19.4278 81.6953 19.5139 81.5143 19.6704C81.3257 19.8252 81.1915 20.0364 81.1313 20.273C81.0834 20.5556 81.0642 20.8423 81.074 21.1287V22.2817H80.6702L80.665 19.137Z" fill="#333333"/>
<path d="M87.3222 19.7904L87.0018 19.99C86.7389 19.6292 86.3144 19.4225 85.8686 19.4382C85.5137 19.4252 85.1686 19.557 84.9126 19.8035C84.6656 20.0363 84.5281 20.3625 84.5335 20.7022C84.5323 20.9313 84.5926 21.1565 84.7081 21.3543C84.8207 21.5526 84.9862 21.7157 85.1861 21.8252C85.3958 21.9379 85.6306 21.9953 85.8686 21.9922C86.3121 22.001 86.7329 21.7957 86.9992 21.4404L87.3196 21.6517C87.1681 21.8764 86.9595 22.0565 86.7152 22.1735C86.445 22.301 86.1491 22.3648 85.8504 22.36C85.3916 22.3748 84.9461 22.2042 84.6143 21.8865C84.295 21.5885 84.1166 21.1692 84.1232 20.7322C84.1218 20.434 84.201 20.141 84.3525 19.8843C84.5023 19.6257 84.721 19.4139 84.9842 19.2726C85.2598 19.124 85.5686 19.0481 85.8816 19.0522C86.086 19.0519 86.2891 19.0841 86.4834 19.1474C86.6601 19.2026 86.8265 19.2868 86.9757 19.3965C87.1162 19.5035 87.234 19.6374 87.3222 19.7904Z" fill="#333333"/>
<path fill-rule="evenodd" clip-rule="evenodd" d="M91.0815 21.4169L90.7415 21.2382C90.6531 21.4053 90.5402 21.5583 90.4068 21.6921C90.2914 21.7896 90.1589 21.8648 90.016 21.9139C89.8668 21.9694 89.7089 21.9977 89.5497 21.9973C89.2345 22.0044 88.9311 21.8774 88.7148 21.6478C88.4854 21.4055 88.3596 21.0829 88.3644 20.7491H91.1857C91.1956 20.3614 91.0734 19.9819 90.8392 19.673C90.5362 19.2696 90.0561 19.039 89.5523 19.0547C89.0652 19.0391 88.6009 19.2614 88.3071 19.6508C88.0655 19.9534 87.9357 20.3303 87.9398 20.7178C87.9381 21.1385 88.0927 21.5448 88.3735 21.8578C88.6618 22.1943 89.0626 22.3626 89.5758 22.3626C89.7876 22.3658 89.9982 22.33 90.1971 22.2569C90.3798 22.1869 90.5474 22.0824 90.6907 21.9491C90.8521 21.7968 90.9845 21.6165 91.0815 21.4169ZM90.5058 19.8686C90.6205 20.0238 90.7009 20.2016 90.7415 20.3904L88.3996 20.3878C88.4584 20.1401 88.5857 19.9141 88.7669 19.7356C88.9841 19.5384 89.2683 19.4315 89.5614 19.4369C89.7464 19.4367 89.9291 19.4773 90.0968 19.5556C90.2555 19.6268 90.3955 19.734 90.5058 19.8686Z" fill="#333333"/>
<path fill-rule="evenodd" clip-rule="evenodd" d="M94.4863 18.0296H93.6396V22.2817H94.0591V20.3056H94.3625C94.7239 20.3179 95.0855 20.2948 95.4423 20.2365C95.6846 20.1853 95.9029 20.0545 96.0623 19.8648C96.3662 19.4469 96.3662 18.8805 96.0623 18.4626C95.9101 18.2771 95.7008 18.1473 95.4671 18.0935C95.1431 18.0394 94.8145 18.0179 94.4863 18.0296ZM94.0643 19.8896V18.4469L94.8145 18.4482C95.0239 18.4377 95.2336 18.4628 95.4345 18.5226C95.5605 18.5721 95.6673 18.6608 95.7393 18.7756C95.8156 18.8917 95.8556 19.028 95.8539 19.1669C95.8546 19.3058 95.8147 19.4418 95.7393 19.5582C95.6635 19.6766 95.5523 19.7679 95.4215 19.8191C95.2147 19.8811 94.9989 19.9076 94.7833 19.8974L94.0643 19.8896Z" fill="#333333"/>
<path d="M97.0156 17.9226H97.4194V22.2817H97.0156V17.9226Z" fill="#333333"/>
<path fill-rule="evenodd" clip-rule="evenodd" d="M101.39 22.2817V19.1369L100.991 19.1395V19.7186C100.849 19.5128 100.661 19.3434 100.441 19.2243C100.225 19.112 99.9843 19.0551 99.7406 19.0586C99.3079 19.0531 98.8925 19.2285 98.5944 19.5425C98.2829 19.848 98.1105 20.2682 98.1177 20.7047C98.1102 21.144 98.2808 21.5675 98.5905 21.8786C98.8854 22.1927 99.2984 22.3683 99.7289 22.3625C99.9683 22.3645 100.205 22.3114 100.421 22.2073C100.642 22.0947 100.836 21.9359 100.991 21.7417V22.2817H101.39ZM98.6973 20.0799C98.9122 19.6861 99.3263 19.4429 99.7745 19.4473C100.106 19.4412 100.425 19.5741 100.654 19.8138C100.893 20.0564 101.023 20.3862 101.013 20.7269C101.017 20.952 100.962 21.1741 100.853 21.3712C100.746 21.5623 100.587 21.7195 100.396 21.8252C100.204 21.9346 99.9873 21.9921 99.7667 21.9921C99.5503 21.9929 99.3378 21.9347 99.1519 21.8238C98.9599 21.7104 98.802 21.5473 98.6947 21.3517C98.5836 21.1584 98.5248 20.9395 98.5241 20.7165C98.5245 20.4927 98.5843 20.273 98.6973 20.0799Z" fill="#333333"/>
<path d="M102.65 17.9695H103.055V19.1369H103.696V19.4877H103.055V22.2817H102.65V19.4877H102.099V19.1369H102.65V17.9695Z" fill="#333333"/>
<path d="M105.595 17.9226V18.3139C105.476 18.257 105.347 18.2246 105.215 18.2187C105.146 18.2158 105.078 18.2325 105.018 18.2669C104.973 18.2901 104.939 18.3291 104.921 18.3765C104.901 18.4858 104.894 18.5969 104.9 18.7078V19.1317H105.551V19.4826H104.9V22.2778H104.496V19.4878H104.083V19.1369H104.496V18.6465C104.487 18.4828 104.508 18.3189 104.557 18.1626C104.601 18.0646 104.675 17.9832 104.768 17.9304C104.878 17.8688 105.002 17.8381 105.128 17.8417C105.287 17.8469 105.444 17.8741 105.595 17.9226Z" fill="#333333"/>
<path fill-rule="evenodd" clip-rule="evenodd" d="M108.845 19.5778C108.541 19.2348 108.1 19.0438 107.642 19.0561C107.182 19.0448 106.741 19.2366 106.436 19.5804C105.848 20.2323 105.859 21.2267 106.46 21.8657C106.772 22.1811 107.197 22.3586 107.64 22.3586C108.084 22.3586 108.509 22.1811 108.821 21.8657C109.422 21.2259 109.433 20.2306 108.845 19.5778ZM106.776 19.8204C106.999 19.5792 107.313 19.4437 107.642 19.4474V19.4526C107.969 19.4481 108.283 19.5816 108.507 19.8204C108.745 20.0595 108.876 20.3853 108.87 20.7231C108.871 20.9455 108.815 21.1644 108.706 21.3583C108.602 21.5484 108.447 21.706 108.259 21.8135C107.875 22.0274 107.408 22.0274 107.024 21.8135C106.837 21.7058 106.683 21.5482 106.579 21.3583C106.469 21.1647 106.412 20.9457 106.413 20.7231C106.407 20.3856 106.538 20.06 106.776 19.8204Z" fill="#333333"/>
<path d="M109.878 19.1369H110.291V19.5973C110.393 19.4373 110.526 19.299 110.682 19.1904C110.809 19.1062 110.957 19.0609 111.109 19.0599C111.236 19.0646 111.359 19.1014 111.467 19.1669L111.256 19.5086C111.189 19.4765 111.117 19.4579 111.043 19.4538C110.896 19.458 110.757 19.5171 110.652 19.6195C110.509 19.7624 110.409 19.9435 110.365 20.1412C110.301 20.4996 110.276 20.864 110.291 21.2278V22.2817H109.878L109.878 19.1369Z" fill="#333333"/>
<path d="M111.971 19.1369H112.375V19.6808C112.489 19.5069 112.636 19.3574 112.809 19.2412C113.003 19.1212 113.226 19.0571 113.453 19.056C113.603 19.0554 113.75 19.086 113.887 19.146C114.015 19.1995 114.13 19.2811 114.222 19.3847C114.324 19.5108 114.401 19.6557 114.447 19.8112C114.565 19.5841 114.738 19.3906 114.951 19.249C115.145 19.1232 115.371 19.0562 115.603 19.056C115.806 19.0518 116.007 19.1096 116.177 19.2217C116.345 19.3327 116.475 19.493 116.548 19.6808C116.641 19.9659 116.682 20.2655 116.668 20.5651V22.2817H116.255V20.5651C116.268 20.3311 116.244 20.0965 116.184 19.8699C116.135 19.7448 116.049 19.6381 115.937 19.5647C115.813 19.4856 115.669 19.4456 115.522 19.4499C115.329 19.4487 115.141 19.5095 114.985 19.6234C114.824 19.7388 114.7 19.8994 114.63 20.0851C114.539 20.3989 114.501 20.7255 114.518 21.0517V22.2817H114.114V20.6721C114.127 20.4122 114.103 20.1517 114.042 19.8986C113.997 19.7663 113.911 19.652 113.796 19.5725C113.673 19.4886 113.526 19.4457 113.377 19.4499C113.19 19.4512 113.008 19.51 112.856 19.6182C112.693 19.7313 112.567 19.8901 112.495 20.0747C112.403 20.3569 112.363 20.6535 112.378 20.9499V22.2817H111.974L111.971 19.1369Z" fill="#333333"/>
<path d="M23.3255 0H16.7528C16.3943 0.00422544 16.1047 0.293753 16.1005 0.652174V6.78261L14.9432 7.96435H9.03849L7.88128 6.8113V0.652174C7.87705 0.293753 7.58746 0.00422544 7.22896 0H0.652316C0.293526 0.00353436 0.00353513 0.293462 0 0.652174V7.22217C0.00353513 7.58089 0.293526 7.87081 0.652316 7.87435H7.00326L7.96347 8.83435V15.0913L6.97717 16.0983H0.845401C0.486902 16.1025 0.197312 16.392 0.193085 16.7504V23.3217C0.193085 23.6819 0.485137 23.9739 0.845401 23.9739H7.41683C7.77709 23.9739 8.06915 23.6819 8.06915 23.3217V16.9461L8.98239 16.0161H15.3568C15.7156 16.0126 16.0056 15.7226 16.0091 15.3639V8.84217L16.9459 7.88478H23.3203C23.6788 7.88056 23.9684 7.59103 23.9726 7.23261V0.652174C23.9684 0.295747 23.682 0.00702024 23.3255 0V0Z" fill="url(#paint0_linear_124_7831)"/>
<rect x="10.8884" y="18.2178" width="5.78343" height="5.78217" fill="url(#paint1_linear_124_7831)"/>
<rect x="18.1997" y="18.2178" width="5.78343" height="5.78217" fill="url(#paint2_linear_124_7831)"/>
<rect x="18.2166" y="10.2339" width="5.78343" height="5.78217" fill="url(#paint3_linear_124_7831)"/>
<defs>
<linearGradient id="paint0_linear_124_7831" x1="-0.113401" y1="34.5664" x2="18.3168" y2="16.1422" gradientUnits="userSpaceOnUse">
<stop stop-color="#0000FF"/>
<stop offset="0.84" stop-color="#3FA9F5"/>
</linearGradient>
<linearGradient id="paint1_linear_124_7831" x1="9.17675" y1="25.0213" x2="16.7807" y2="34.7246" gradientUnits="userSpaceOnUse">
<stop stop-color="#FFAA00"/>
<stop offset="0.41" stop-color="#FFA700"/>
<stop offset="0.75" stop-color="#FF9C00"/>
<stop offset="0.9" stop-color="#FF9500"/>
</linearGradient>
<linearGradient id="paint2_linear_124_7831" x1="13.7066" y1="21.4721" x2="21.3105" y2="31.1755" gradientUnits="userSpaceOnUse">
<stop stop-color="#FFAA00"/>
<stop offset="0.41" stop-color="#FFA700"/>
<stop offset="0.75" stop-color="#FF9C00"/>
<stop offset="0.9" stop-color="#FF9500"/>
</linearGradient>
<linearGradient id="paint3_linear_124_7831" x1="17.5929" y1="18.4265" x2="25.1969" y2="28.1298" gradientUnits="userSpaceOnUse">
<stop stop-color="#FFAA00"/>
<stop offset="0.41" stop-color="#FFA700"/>
<stop offset="0.75" stop-color="#FF9C00"/>
<stop offset="0.9" stop-color="#FF9500"/>
</linearGradient>
</defs>
</svg>
