<svg width="16" height="16" viewBox="0 0 16 16" fill="none" xmlns="http://www.w3.org/2000/svg">
<path d="M3.12575 15V14.0894H11.5951V15H3.12575ZM9.36451 12.4673L7.17876 8.61019L9.36342 4.7542H13.7316L15.9163 8.61019L13.7316 12.4662H9.36451V12.4673ZM9.86799 8.61019C9.84829 9.58979 10.5915 10.3986 11.5251 10.4118C12.4576 10.426 13.2227 9.63904 13.2293 8.66054C13.2358 7.68095 12.4817 6.88304 11.5492 6.88304C10.6309 6.87429 9.87894 7.64592 9.86799 8.61019ZM8.36959 12.3721H0.5V1H13.8597V3.76585H8.94531L6.11488 8.5292L8.3685 12.371V12.3721H8.36959Z" fill="black"/>
</svg>
