<svg width="16" height="16" viewBox="0 0 16 16" fill="none" xmlns="http://www.w3.org/2000/svg">
<g clip-path="url(#clip0_124_7805)">
<path d="M16.3785 4.3621L12.8267 7.91396C12.4996 8.24101 11.9698 8.24101 11.6427 7.91396L8.09133 4.3621C7.76428 4.03551 7.76428 3.50521 8.09133 3.17861L11.6427 -0.37324C11.9698 -0.700294 12.4996 -0.700294 12.8267 -0.37324L16.3785 3.17861C16.7056 3.50521 16.7056 4.03551 16.3785 4.3621ZM12.2414 0.272089L8.73666 3.77683L12.2414 7.28156L15.7461 3.77683L12.2414 0.272089ZM6.00521 16.0182H0.923879C0.413436 16.0182 0 15.6048 0 15.0943V10.013C0 9.50303 0.413436 9.08913 0.923879 9.08913H6.00521C6.5152 9.08913 6.92909 9.50303 6.92909 10.013V15.0943C6.92909 15.6048 6.5152 16.0182 6.00521 16.0182ZM6.00521 10.013H0.923879V15.0943H6.00521V10.013ZM6.00521 7.70331H0.923879C0.413436 7.70331 0 7.28988 0 6.77943V1.6981C0 1.18812 0.413436 0.774218 0.923879 0.774218H6.00521C6.5152 0.774218 6.92909 1.18812 6.92909 1.6981V6.77943C6.92909 7.28988 6.5152 7.70331 6.00521 7.70331ZM6.00521 1.6981H0.923879V6.77943H6.00521V1.6981ZM9.23879 9.08913H14.3201C14.8301 9.08913 15.244 9.50303 15.244 10.013V15.0943C15.244 15.6048 14.8301 16.0182 14.3201 16.0182H9.23879C8.72835 16.0182 8.31491 15.6048 8.31491 15.0943V10.013C8.31491 9.50303 8.72835 9.08913 9.23879 9.08913ZM9.23879 15.0943H14.3201V10.013H9.23879V15.0943Z" fill="black"/>
</g>
<defs>
<clipPath id="clip0_124_7805">
<rect width="16" height="16" fill="white"/>
</clipPath>
</defs>
</svg>
